<?xml version="1.0" standalone="no"?>
<!DOCTYPE svg PUBLIC "-//W3C//DTD SVG 20010904//EN"
 "http://www.w3.org/TR/2001/REC-SVG-20010904/DTD/svg10.dtd">
<svg version="1.0" xmlns="http://www.w3.org/2000/svg"
 width="256.000000pt" height="256.000000pt" viewBox="0 0 256.000000 256.000000"
 preserveAspectRatio="xMidYMid meet">
<metadata>
Created by potrace 1.11, written by Peter Selinger 2001-2013
</metadata>
<g transform="translate(0.000000,256.000000) scale(0.100000,-0.100000)"
fill="#000000" stroke="none">
<path d="M940 2069 c-115 -34 -196 -139 -215 -280 -5 -41 -9 -46 -42 -58 -89
-33 -183 -173 -183 -274 l0 -42 57 -2 c31 -1 76 -9 100 -18 l44 -17 54 51
c113 107 263 145 402 103 61 -19 161 -80 171 -104 5 -12 22 -10 22 3 0 14 56
94 99 142 47 52 138 113 208 139 32 12 61 24 66 28 11 10 -47 94 -86 124 -77
59 -194 81 -276 51 -45 -15 -71 -9 -71 19 0 21 -81 95 -128 117 -52 25 -166
35 -222 18z"/>
<path d="M1765 1670 c-189 -46 -341 -193 -390 -381 -17 -63 -17 -196 0 -258
61 -230 265 -389 504 -389 151 -1 281 56 384 168 92 99 135 212 135 351 0 292
-227 519 -518 517 -47 -1 -98 -4 -115 -8z"/>
<path d="M905 1442 c-68 -34 -115 -76 -152 -139 l-26 -44 -21 19 c-46 42 -88
57 -166 56 -82 0 -129 -18 -187 -72 -58 -54 -80 -117 -82 -234 -1 -23 -5 -27
-23 -24 -26 4 -94 -27 -121 -55 -25 -27 -47 -82 -47 -119 l0 -30 661 0 661 0
-17 27 c-45 68 -75 137 -91 208 -12 49 -11 190 0 246 l13 62 -39 38 c-62 60
-119 82 -218 87 -78 3 -90 1 -145 -26z"/>
</g>
</svg>
